<?xml version="1.0" standalone="no"?>
<!DOCTYPE svg PUBLIC "-//W3C//DTD SVG 20010904//EN"
 "http://www.w3.org/TR/2001/REC-SVG-20010904/DTD/svg10.dtd">
<svg version="1.0" xmlns="http://www.w3.org/2000/svg"
 width="311.000000pt" height="284.000000pt" viewBox="0 0 311.000000 284.000000"
 preserveAspectRatio="xMidYMid meet">

<g transform="translate(0.000000,284.000000) scale(0.100000,-0.100000)"
fill="#000000" stroke="none">
<path d="M2069 2545 c-3 -2 -124 -209 -270 -460 -145 -250 -266 -455 -269
-455 -3 0 -79 127 -170 283 -90 155 -196 336 -235 402 -39 66 -84 144 -101
172 -16 29 -32 52 -36 50 -7 -2 -87 -138 -309 -520 l-68 -118 62 -105 c55 -94
63 -103 75 -87 7 10 63 105 125 211 61 105 114 192 117 192 3 0 52 -82 110
-182 246 -426 421 -723 428 -725 6 -2 149 236 272 452 112 198 265 455 271
455 4 0 60 -92 125 -205 66 -113 122 -205 126 -205 9 0 121 189 121 205 0 6
-78 145 -175 310 -96 165 -179 308 -184 318 -6 10 -12 15 -15 12z"/>
<path d="M928 1580 c-32 -55 -58 -105 -58 -111 0 -10 134 -245 345 -604 79
-134 231 -396 291 -499 l22 -38 70 118 c314 535 592 1016 592 1026 0 15 -110
208 -119 208 -3 0 -33 -46 -65 -102 -33 -57 -87 -150 -121 -208 -34 -58 -127
-216 -206 -352 -79 -137 -147 -247 -151 -245 -9 2 -49 69 -333 561 -110 190
-202 345 -205 345 -3 0 -31 -44 -62 -99z"/>
</g>
</svg>
